<?xml version="1.0" encoding="iso-8859-1"?>
<!-- Generator: Adobe Illustrator 19.0.0, SVG Export Plug-In . SVG Version: 6.00 Build 0)  -->
<svg version="1.1" id="Capa_1" xmlns="http://www.w3.org/2000/svg" xmlns:xlink="http://www.w3.org/1999/xlink" x="0px" y="0px"
	 viewBox="0 0 496.004 496.004" style="enable-background:new 0 0 496.004 496.004;" xml:space="preserve">
<g>
	<g>
		<g>
			<path d="M493.661,178.346l-80-80c-1.151-1.148-2.624-1.918-4.224-2.208l-88-16c-4.347-0.791-8.512,2.092-9.303,6.439
				c-0.086,0.47-0.129,0.947-0.129,1.425c-0.023,2.542-0.251,5.078-0.68,7.584l-55.32-13.824v-2.56
				c21.645-4.418,35.61-25.547,31.192-47.192C282.779,10.365,261.65-3.6,240.005,0.818c-18.621,3.801-31.996,20.179-32,39.184h16
				c0-13.255,10.745-24,24-24c13.255,0,24,10.745,24,24s-10.745,24-24,24c-4.418,0-8,3.582-8,8v9.752l-55.32,13.832
				c-0.429-2.506-0.657-5.042-0.68-7.584c0.001-2.373-1.051-4.623-2.872-6.144c-1.811-1.542-4.226-2.175-6.56-1.72l-88,16
				c-1.6,0.29-3.073,1.06-4.224,2.208l-80,80c-3.123,3.124-3.123,8.188,0,11.312l64,64c3.124,3.123,8.188,3.123,11.312,0
				l18.344-18.344v52.688h-56c-22.025-0.064-39.931,17.74-39.995,39.765c-0.037,12.721,5.997,24.696,16.243,32.235
				C-1.42,372.915-5.279,397.71,7.635,415.383c2.411,3.3,5.318,6.207,8.618,8.618c-17.739,13.054-21.537,38.018-8.483,55.757
				c7.54,10.245,19.515,16.279,32.235,16.243h288c2.122,0,4.156-0.844,5.656-2.344l64-64c1.481-1.507,2.299-3.543,2.272-5.656h0.072
				V235.314l18.344,18.344c3.124,3.123,8.188,3.123,11.312,0l64-64C496.784,186.534,496.784,181.469,493.661,178.346z
				 M248.005,96.242l58.176,14.544c-12.058,20.553-34.357,32.901-58.176,32.216c-23.819,0.685-46.118-11.663-58.176-32.216
				L248.005,96.242z M16.005,328.002c0-13.255,10.745-24,24-24h176c13.255,0,24,10.745,24,24s-10.745,24-24,24h-176
				C26.75,352.002,16.005,341.256,16.005,328.002z M16.005,392.002c0-13.255,10.745-24,24-24h176c13.255,0,24,10.745,24,24
				s-10.745,24-24,24h-176C26.75,416.002,16.005,405.256,16.005,392.002z M216.005,480.002h-16h-160c-13.255,0-24-10.745-24-24
				s10.745-24,24-24h176c13.255,0,24,10.745,24,24S229.26,480.002,216.005,480.002z M336.005,468.69v-36.688h36.688L336.005,468.69z
				 M424.005,236.69l-50.344-50.344l-11.312,11.312l21.656,21.656v196.688h-56c-4.418,0-8,3.582-8,8v56h-72.208
				c13.315-17.25,10.126-42.027-7.123-55.343c-0.289-0.223-0.581-0.442-0.877-0.657c17.673-12.913,21.532-37.708,8.619-55.382
				c-2.411-3.3-5.318-6.207-8.619-8.618c17.74-13.054,21.538-38.018,8.483-55.757c-7.548-10.257-19.541-16.292-32.275-16.243h-104
				v-68.688l21.656-21.656l-11.312-11.312L72.005,236.69l-52.688-52.688l72.576-72.576l76.8-13.96
				c5.232,34.688,38.8,61.536,79.296,61.536c40.496,0,74.064-26.848,79.296-61.536l76.8,13.96l72.608,72.576L424.005,236.69z"/>
			<rect x="32.005" y="320.002" width="192" height="16"/>
			<rect x="32.005" y="384.002" width="184" height="16"/>
			<rect x="32.005" y="448.002" width="184" height="16"/>
		</g>
	</g>
</g>
<g>
</g>
<g>
</g>
<g>
</g>
<g>
</g>
<g>
</g>
<g>
</g>
<g>
</g>
<g>
</g>
<g>
</g>
<g>
</g>
<g>
</g>
<g>
</g>
<g>
</g>
<g>
</g>
<g>
</g>
</svg>
