<?xml version="1.0"?>
<svg xmlns="http://www.w3.org/2000/svg" width="512" height="512" viewBox="0 0 128 128"><g><path d="M115.5,4.75H12.5A7.759,7.759,0,0,0,4.75,12.5V82a7.759,7.759,0,0,0,7.75,7.75H55.9a119.97,119.97,0,0,1-5.688,24H44.1a1.751,1.751,0,0,0-1.75,1.75v6a1.751,1.751,0,0,0,1.75,1.75H83.9a1.751,1.751,0,0,0,1.75-1.75v-6a1.751,1.751,0,0,0-1.75-1.75H77.789a121.247,121.247,0,0,1-5.685-24h43.4A7.759,7.759,0,0,0,123.25,82V12.5A7.759,7.759,0,0,0,115.5,4.75Zm-103,3.5h103a4.255,4.255,0,0,1,4.25,4.25V74.25H8.25V12.5A4.255,4.255,0,0,1,12.5,8.25Zm69.654,111.5H45.846v-2.5H82.154Zm-8.056-6H53.9a120.445,120.445,0,0,0,5.512-24h9.175A121.863,121.863,0,0,0,74.1,113.75ZM119.75,82a4.255,4.255,0,0,1-4.25,4.25H12.5A4.255,4.255,0,0,1,8.25,82V77.75h111.5Z"/><path d="M115.5,35.75A1.751,1.751,0,0,0,117.25,34V24.19a1.75,1.75,0,1,0-3.5,0V34A1.751,1.751,0,0,0,115.5,35.75Z"/><path d="M45.6,49.025a1.744,1.744,0,0,0,1.237-.512L71.263,24.088a1.75,1.75,0,0,0-2.475-2.475L44.363,46.038A1.75,1.75,0,0,0,45.6,49.025Z"/><path d="M46.146,59.1a1.748,1.748,0,0,0,2.474,0L81.854,25.871A1.75,1.75,0,0,0,79.38,23.4L46.146,56.63A1.748,1.748,0,0,0,46.146,59.1Z"/><path d="M56.737,58.413a1.75,1.75,0,1,0,2.475,2.474L83.637,36.462a1.75,1.75,0,1,0-2.474-2.475Z"/></g></svg>
