<?xml version="1.0" encoding="iso-8859-1"?>
<!-- Generator: Adobe Illustrator 18.1.1, SVG Export Plug-In . SVG Version: 6.00 Build 0)  -->
<svg version="1.1" id="Capa_1" xmlns="http://www.w3.org/2000/svg" xmlns:xlink="http://www.w3.org/1999/xlink" x="0px" y="0px"
	 viewBox="0 0 451.185 451.185" style="enable-background:new 0 0 451.185 451.185;" xml:space="preserve">
<g>
	<path d="M58.503,284.096C26.244,284.096,0,257.851,0,225.592s26.244-58.503,58.503-58.503c32.262,0,58.507,26.244,58.507,58.503
		S90.766,284.096,58.503,284.096z M58.503,188.574c-20.411,0-37.018,16.607-37.018,37.018s16.607,37.018,37.018,37.018
		c20.415,0,37.022-16.607,37.022-37.018S78.918,188.574,58.503,188.574z"/>
	<path d="M225.592,284.096c-32.259,0-58.503-26.244-58.503-58.503s26.244-58.503,58.503-58.503s58.503,26.244,58.503,58.503
		S257.851,284.096,225.592,284.096z M225.592,188.574c-20.411,0-37.018,16.607-37.018,37.018s16.607,37.018,37.018,37.018
		s37.018-16.607,37.018-37.018S246.004,188.574,225.592,188.574z"/>
	<path d="M392.681,284.096c-32.262,0-58.507-26.244-58.507-58.503s26.244-58.503,58.507-58.503
		c32.259,0,58.503,26.244,58.503,58.503S424.94,284.096,392.681,284.096z M392.681,188.574c-20.415,0-37.022,16.607-37.022,37.018
		s16.607,37.018,37.022,37.018c20.411,0,37.018-16.607,37.018-37.018S413.093,188.574,392.681,188.574z"/>
</g>
<g>
</g>
<g>
</g>
<g>
</g>
<g>
</g>
<g>
</g>
<g>
</g>
<g>
</g>
<g>
</g>
<g>
</g>
<g>
</g>
<g>
</g>
<g>
</g>
<g>
</g>
<g>
</g>
<g>
</g>
</svg>
