<svg id="Layer_5" enable-background="new 0 0 64 64" height="512" viewBox="0 0 64 64" width="512" xmlns="http://www.w3.org/2000/svg"><path d="m9 49.184v-13.184h-2v13.184c-1.161.414-2 1.514-2 2.816 0 1.654 1.346 3 3 3s3-1.346 3-3c0-1.302-.839-2.402-2-2.816zm-1 3.816c-.552 0-1-.448-1-1s.448-1 1-1 1 .448 1 1-.448 1-1 1z"/><path d="m14 36c-1.654 0-3 1.346-3 3 0 1.302.839 2.402 2 2.816v13.184h2v-13.184c1.161-.414 2-1.514 2-2.816 0-1.654-1.346-3-3-3zm0 4c-.552 0-1-.448-1-1s.448-1 1-1 1 .448 1 1-.448 1-1 1z"/><path d="m53 49.184v-13.184h-2v13.184c-1.161.414-2 1.514-2 2.816 0 1.654 1.346 3 3 3s3-1.346 3-3c0-1.302-.839-2.402-2-2.816zm-1 3.816c-.552 0-1-.448-1-1s.448-1 1-1 1 .448 1 1-.448 1-1 1z"/><path d="m58 36c-1.654 0-3 1.346-3 3 0 1.302.839 2.402 2 2.816v13.184h2v-13.184c1.161-.414 2-1.514 2-2.816 0-1.654-1.346-3-3-3zm0 4c-.552 0-1-.448-1-1s.448-1 1-1 1 .448 1 1-.448 1-1 1z"/><path d="m44 33c-.395 0-.77.081-1.116.22-.345-1.275-1.501-2.22-2.884-2.22-.771 0-1.468.301-2 .78-.532-.48-1.229-.78-2-.78-.352 0-.686.072-1 .184v-8.605c4.158-1.178 7.235-4.724 7.87-8.959l4.228 2.326c-2.479 1.821-4.098 4.749-4.098 8.054 0 5.514 4.486 10 10 10s10-4.486 10-10-4.486-10-10-10c-1.371 0-2.679.278-3.87.78l-6.161-3.389c-.318-5.781-5.109-10.391-10.969-10.391s-10.651 4.61-10.969 10.392l-6.161 3.388c-1.191-.502-2.498-.78-3.87-.78-5.514 0-10 4.486-10 10s4.486 10 10 10 10-4.486 10-10c0-3.306-1.619-6.233-4.099-8.055l4.229-2.326c.635 4.239 3.71 7.783 7.871 8.961v18.433c0 .455-.105.911-.306 1.319l-.839-4.194c-.601-3.002-3.259-5.181-6.32-5.181-1.397 0-2.535 1.138-2.535 2.535 0 .502.147.988.426 1.406l1.029 1.544c.381.571.627 1.233.712 1.914l.692 5.533c.114.923.406 1.8.837 2.547l3.303 6.794v1.77h-2v6h22v-6h-2v-1.667l1.6-2.133c.903-1.203 1.4-2.694 1.4-4.2v-13c0-1.654-1.346-3-3-3zm9-1c-1.799 0-3.455-.604-4.792-1.609 1.125-1.492 2.895-2.391 4.792-2.391s3.667.899 4.792 2.391c-1.337 1.005-2.993 1.609-4.792 1.609zm-3-9c0-1.654 1.346-3 3-3s3 1.346 3 3-1.346 3-3 3-3-1.346-3-3zm3-7c4.411 0 8 3.589 8 8 0 1.893-.664 3.633-1.768 5.004-.792-.986-1.796-1.763-2.931-2.278 1.034-.917 1.699-2.239 1.699-3.726 0-2.757-2.243-5-5-5s-5 2.243-5 5c0 1.487.665 2.809 1.699 3.726-1.135.516-2.139 1.292-2.931 2.278-1.104-1.371-1.768-3.111-1.768-5.004 0-4.411 3.589-8 8-8zm-42 16c-1.799 0-3.455-.604-4.792-1.609 1.125-1.492 2.895-2.391 4.792-2.391s3.667.899 4.792 2.391c-1.337 1.005-2.993 1.609-4.792 1.609zm-3-9c0-1.654 1.346-3 3-3s3 1.346 3 3-1.346 3-3 3-3-1.346-3-3zm11 1c0 1.893-.664 3.633-1.768 5.004-.792-.986-1.796-1.763-2.931-2.278 1.034-.917 1.699-2.239 1.699-3.726 0-2.757-2.243-5-5-5s-5 2.243-5 5c0 1.487.665 2.809 1.699 3.726-1.135.516-2.139 1.292-2.931 2.278-1.104-1.371-1.768-3.111-1.768-5.004 0-4.411 3.589-8 8-8s8 3.589 8 8zm4-12c0-4.963 4.037-9 9-9s9 4.037 9 9c0 2.017-.685 3.907-1.842 5.432-.823-1.659-2.186-2.965-3.844-3.717 1.026-.916 1.686-2.234 1.686-3.715 0-2.757-2.243-5-5-5s-5 2.243-5 5c0 1.481.66 2.799 1.686 3.715-1.659.752-3.022 2.059-3.845 3.718-1.157-1.524-1.841-3.414-1.841-5.433zm12-2c0 1.654-1.346 3-3 3s-3-1.346-3-3 1.346-3 3-3 3 1.346 3 3zm-8.638 9.003c.838-2.379 3.066-4.003 5.638-4.003 2.57 0 4.798 1.624 5.638 4.001-.876.709-1.886 1.262-2.998 1.603-.505-.949-1.492-1.604-2.64-1.604s-2.135.655-2.639 1.604c-1.113-.341-2.123-.893-2.999-1.601zm17.638 41.997h-18v-2h18zm1-12c0 1.075-.355 2.141-1 3l-2 2.667v2.333h-14v-2.23l-3.536-7.267c-.33-.575-.538-1.2-.62-1.859l-.692-5.534c-.123-.987-.479-1.947-1.032-2.775l-1.03-1.545c-.059-.088-.09-.191-.09-.298 0-.295.24-.534.535-.534 2.111 0 3.944 1.503 4.359 3.573l1.286 6.427h2.438l.854-1.709c.345-.69.528-1.464.528-2.235v-19.014c0-.552.448-1 1-1s1 .448 1 1v12 4h2v-4c0-.552.448-1 1-1s1 .448 1 1v4h2v-4c0-.552.448-1 1-1s1 .448 1 1v2 2h2v-2c0-.552.448-1 1-1s1 .448 1 1z"/></svg>